<mxfile host="Electron" modified="2023-08-05T21:32:07.607Z" agent="Mozilla/5.0 (X11; Linux x86_64) AppleWebKit/537.36 (KHTML, like Gecko) draw.io/21.6.5 Chrome/114.0.5735.134 Electron/25.3.2 Safari/537.36" etag="iy2ab65v25kx_G5u0Xy1" version="21.6.5" type="device">
  <diagram id="EkbNz1Hrpv4bbysEagKd" name="Page-1">
    <mxGraphModel dx="1352" dy="1103" grid="1" gridSize="10" guides="1" tooltips="1" connect="1" arrows="1" fold="1" page="1" pageScale="1" pageWidth="1200" pageHeight="1920" math="0" shadow="0">
      <root>
        <mxCell id="0" />
        <mxCell id="1" parent="0" />
        <mxCell id="qOO70KsoDbuKheBEqoZG-1" value="Q" style="whiteSpace=wrap;html=1;aspect=fixed;fontSize=13;fontFamily=Verdana;fontStyle=1;fontColor=#AFB9C7;fillColor=#383E47;rounded=1;" parent="1" vertex="1">
          <mxGeometry x="26" y="100" width="40" height="40" as="geometry" />
        </mxCell>
        <mxCell id="qOO70KsoDbuKheBEqoZG-2" value="W" style="whiteSpace=wrap;html=1;aspect=fixed;fontSize=13;fontFamily=Verdana;fontStyle=1;fontColor=#AFB9C7;fillColor=#383E47;rounded=1;" parent="1" vertex="1">
          <mxGeometry x="66" y="75" width="40" height="40" as="geometry" />
        </mxCell>
        <mxCell id="qOO70KsoDbuKheBEqoZG-3" value="E" style="whiteSpace=wrap;html=1;aspect=fixed;fontSize=13;fontFamily=Verdana;fontStyle=1;fontColor=#AFB9C7;fillColor=#383E47;rounded=1;" parent="1" vertex="1">
          <mxGeometry x="106" y="60" width="40" height="40" as="geometry" />
        </mxCell>
        <mxCell id="qOO70KsoDbuKheBEqoZG-4" value="R" style="whiteSpace=wrap;html=1;aspect=fixed;fontSize=13;fontFamily=Verdana;fontStyle=1;fontColor=#AFB9C7;fillColor=#383E47;rounded=1;" parent="1" vertex="1">
          <mxGeometry x="146" y="75" width="40" height="40" as="geometry" />
        </mxCell>
        <mxCell id="qOO70KsoDbuKheBEqoZG-5" value="T" style="whiteSpace=wrap;html=1;aspect=fixed;fontSize=13;fontFamily=Verdana;fontStyle=1;fontColor=#AFB9C7;fillColor=#383E47;rounded=1;" parent="1" vertex="1">
          <mxGeometry x="186" y="83" width="40" height="40" as="geometry" />
        </mxCell>
        <mxCell id="qOO70KsoDbuKheBEqoZG-6" value="A" style="whiteSpace=wrap;html=1;aspect=fixed;fontSize=13;fontFamily=Verdana;fontStyle=1;fontColor=#AFB9C7;fillColor=#383E47;rounded=1;" parent="1" vertex="1">
          <mxGeometry x="26" y="140" width="40" height="40" as="geometry" />
        </mxCell>
        <mxCell id="qOO70KsoDbuKheBEqoZG-7" value="S" style="whiteSpace=wrap;html=1;aspect=fixed;fontSize=13;fontFamily=Verdana;fontStyle=1;fontColor=#AFB9C7;fillColor=#383E47;rounded=1;" parent="1" vertex="1">
          <mxGeometry x="66" y="115" width="40" height="40" as="geometry" />
        </mxCell>
        <mxCell id="qOO70KsoDbuKheBEqoZG-8" value="D" style="whiteSpace=wrap;html=1;aspect=fixed;fontSize=13;fontFamily=Verdana;fontStyle=1;fontColor=#AFB9C7;fillColor=#383E47;rounded=1;" parent="1" vertex="1">
          <mxGeometry x="106" y="100" width="40" height="40" as="geometry" />
        </mxCell>
        <mxCell id="qOO70KsoDbuKheBEqoZG-9" value="F" style="whiteSpace=wrap;html=1;aspect=fixed;fontSize=13;fontFamily=Verdana;fontStyle=1;fontColor=#AFB9C7;fillColor=#383E47;rounded=1;" parent="1" vertex="1">
          <mxGeometry x="146" y="115" width="40" height="40" as="geometry" />
        </mxCell>
        <mxCell id="qOO70KsoDbuKheBEqoZG-10" value="G" style="whiteSpace=wrap;html=1;aspect=fixed;fontSize=13;fontFamily=Verdana;fontStyle=1;fontColor=#AFB9C7;fillColor=#383E47;rounded=1;" parent="1" vertex="1">
          <mxGeometry x="186" y="123" width="40" height="40" as="geometry" />
        </mxCell>
        <mxCell id="qOO70KsoDbuKheBEqoZG-11" value="Z" style="whiteSpace=wrap;html=1;aspect=fixed;fontSize=13;fontFamily=Verdana;fontStyle=1;fontColor=#AFB9C7;fillColor=#383E47;rounded=1;" parent="1" vertex="1">
          <mxGeometry x="26" y="180" width="40" height="40" as="geometry" />
        </mxCell>
        <mxCell id="qOO70KsoDbuKheBEqoZG-12" value="X" style="whiteSpace=wrap;html=1;aspect=fixed;fontSize=13;fontFamily=Verdana;fontStyle=1;fontColor=#AFB9C7;fillColor=#383E47;rounded=1;" parent="1" vertex="1">
          <mxGeometry x="66" y="155" width="40" height="40" as="geometry" />
        </mxCell>
        <mxCell id="qOO70KsoDbuKheBEqoZG-13" value="C" style="whiteSpace=wrap;html=1;aspect=fixed;fontSize=13;fontFamily=Verdana;fontStyle=1;fontColor=#AFB9C7;fillColor=#383E47;rounded=1;" parent="1" vertex="1">
          <mxGeometry x="106" y="140" width="40" height="40" as="geometry" />
        </mxCell>
        <mxCell id="qOO70KsoDbuKheBEqoZG-14" value="V" style="whiteSpace=wrap;html=1;aspect=fixed;fontSize=13;fontFamily=Verdana;fontStyle=1;fontColor=#AFB9C7;fillColor=#383E47;rounded=1;" parent="1" vertex="1">
          <mxGeometry x="146" y="155" width="40" height="40" as="geometry" />
        </mxCell>
        <mxCell id="qOO70KsoDbuKheBEqoZG-15" value="B" style="whiteSpace=wrap;html=1;aspect=fixed;fontSize=13;fontFamily=Verdana;fontStyle=1;fontColor=#AFB9C7;fillColor=#383E47;rounded=1;" parent="1" vertex="1">
          <mxGeometry x="186" y="163" width="40" height="40" as="geometry" />
        </mxCell>
        <mxCell id="qOO70KsoDbuKheBEqoZG-16" value="L2" style="whiteSpace=wrap;html=1;aspect=fixed;rotation=15;fontSize=13;fontFamily=Verdana;fontStyle=1;fillColor=#a20025;strokeColor=#6F0000;fontColor=#ffffff;rounded=1;" parent="1" vertex="1">
          <mxGeometry x="166" y="209" width="40" height="40" as="geometry" />
        </mxCell>
        <mxCell id="qOO70KsoDbuKheBEqoZG-17" value="&lt;span style=&quot;font-family: &amp;quot;segoe ui emoji&amp;quot;, &amp;quot;apple color emoji&amp;quot;, &amp;quot;noto color emoji&amp;quot;; background-color: rgb(56, 62, 71); font-size: 13px;&quot;&gt;&lt;font style=&quot;font-size: 13px;&quot;&gt;shift&lt;/font&gt;&lt;/span&gt;" style="whiteSpace=wrap;html=1;aspect=fixed;rotation=30;fontSize=13;fontFamily=Verdana;fontStyle=1;fontColor=#AFB9C7;fillColor=#383E47;rounded=1;" parent="1" vertex="1">
          <mxGeometry x="214" y="227" width="40" height="40" as="geometry" />
        </mxCell>
        <mxCell id="qOO70KsoDbuKheBEqoZG-18" value="Y" style="whiteSpace=wrap;html=1;aspect=fixed;fontSize=13;fontFamily=Verdana;fontStyle=1;fontColor=#AFB9C7;fillColor=#383E47;rounded=1;" parent="1" vertex="1">
          <mxGeometry x="354" y="83" width="40" height="40" as="geometry" />
        </mxCell>
        <mxCell id="qOO70KsoDbuKheBEqoZG-19" value="U" style="whiteSpace=wrap;html=1;aspect=fixed;fontSize=13;fontFamily=Verdana;fontStyle=1;fontColor=#AFB9C7;fillColor=#383E47;rounded=1;" parent="1" vertex="1">
          <mxGeometry x="394" y="75" width="40" height="40" as="geometry" />
        </mxCell>
        <mxCell id="qOO70KsoDbuKheBEqoZG-20" value="I" style="whiteSpace=wrap;html=1;aspect=fixed;fontSize=13;fontFamily=Verdana;fontStyle=1;fontColor=#AFB9C7;fillColor=#383E47;rounded=1;" parent="1" vertex="1">
          <mxGeometry x="434" y="60" width="40" height="40" as="geometry" />
        </mxCell>
        <mxCell id="qOO70KsoDbuKheBEqoZG-21" value="O" style="whiteSpace=wrap;html=1;aspect=fixed;fontSize=13;fontFamily=Verdana;fontStyle=1;fontColor=#AFB9C7;fillColor=#383E47;rounded=1;" parent="1" vertex="1">
          <mxGeometry x="474" y="75" width="40" height="40" as="geometry" />
        </mxCell>
        <mxCell id="qOO70KsoDbuKheBEqoZG-22" value="P" style="whiteSpace=wrap;html=1;aspect=fixed;fontSize=13;fontFamily=Verdana;fontStyle=1;fontColor=#AFB9C7;fillColor=#383E47;rounded=1;" parent="1" vertex="1">
          <mxGeometry x="514" y="100" width="40" height="40" as="geometry" />
        </mxCell>
        <mxCell id="qOO70KsoDbuKheBEqoZG-23" value="H" style="whiteSpace=wrap;html=1;aspect=fixed;fontSize=13;fontFamily=Verdana;fontStyle=1;fontColor=#AFB9C7;fillColor=#383E47;rounded=1;" parent="1" vertex="1">
          <mxGeometry x="354" y="123" width="40" height="40" as="geometry" />
        </mxCell>
        <mxCell id="qOO70KsoDbuKheBEqoZG-24" value="J" style="whiteSpace=wrap;html=1;aspect=fixed;fontSize=13;fontFamily=Verdana;fontStyle=1;fontColor=#AFB9C7;fillColor=#383E47;rounded=1;" parent="1" vertex="1">
          <mxGeometry x="394" y="115" width="40" height="40" as="geometry" />
        </mxCell>
        <mxCell id="qOO70KsoDbuKheBEqoZG-25" value="K" style="whiteSpace=wrap;html=1;aspect=fixed;fontSize=13;fontFamily=Verdana;fontStyle=1;fontColor=#AFB9C7;fillColor=#383E47;rounded=1;" parent="1" vertex="1">
          <mxGeometry x="434" y="100" width="40" height="40" as="geometry" />
        </mxCell>
        <mxCell id="qOO70KsoDbuKheBEqoZG-26" value="L" style="whiteSpace=wrap;html=1;aspect=fixed;fontSize=13;fontFamily=Verdana;fontStyle=1;fontColor=#AFB9C7;fillColor=#383E47;rounded=1;" parent="1" vertex="1">
          <mxGeometry x="474" y="115" width="40" height="40" as="geometry" />
        </mxCell>
        <mxCell id="qOO70KsoDbuKheBEqoZG-27" value="; :" style="whiteSpace=wrap;html=1;aspect=fixed;fontSize=13;fontFamily=Verdana;fontStyle=1;fontColor=#AFB9C7;fillColor=#383E47;rounded=1;" parent="1" vertex="1">
          <mxGeometry x="514" y="140" width="40" height="40" as="geometry" />
        </mxCell>
        <mxCell id="qOO70KsoDbuKheBEqoZG-28" value="N" style="whiteSpace=wrap;html=1;aspect=fixed;fontSize=13;fontFamily=Verdana;fontStyle=1;fontColor=#AFB9C7;fillColor=#383E47;rounded=1;" parent="1" vertex="1">
          <mxGeometry x="354" y="163" width="40" height="40" as="geometry" />
        </mxCell>
        <mxCell id="qOO70KsoDbuKheBEqoZG-29" value="M" style="whiteSpace=wrap;html=1;aspect=fixed;fontSize=13;fontFamily=Verdana;fontStyle=1;fontColor=#AFB9C7;fillColor=#383E47;rounded=1;" parent="1" vertex="1">
          <mxGeometry x="394" y="155" width="40" height="40" as="geometry" />
        </mxCell>
        <mxCell id="qOO70KsoDbuKheBEqoZG-30" value=", &amp;lt;" style="whiteSpace=wrap;html=1;aspect=fixed;fontSize=13;fontFamily=Verdana;fontStyle=1;fontColor=#AFB9C7;fillColor=#383E47;rounded=1;" parent="1" vertex="1">
          <mxGeometry x="434" y="140" width="40" height="40" as="geometry" />
        </mxCell>
        <mxCell id="qOO70KsoDbuKheBEqoZG-31" value=". &amp;gt;" style="whiteSpace=wrap;html=1;aspect=fixed;fontSize=13;fontFamily=Verdana;fontStyle=1;fontColor=#AFB9C7;fillColor=#383E47;rounded=1;" parent="1" vertex="1">
          <mxGeometry x="474" y="155" width="40" height="40" as="geometry" />
        </mxCell>
        <mxCell id="qOO70KsoDbuKheBEqoZG-32" value="&#39; &quot;" style="whiteSpace=wrap;html=1;aspect=fixed;fontSize=13;fontFamily=Verdana;fontStyle=1;fontColor=#AFB9C7;fillColor=#383E47;rounded=1;" parent="1" vertex="1">
          <mxGeometry x="514" y="180" width="40" height="40" as="geometry" />
        </mxCell>
        <mxCell id="qOO70KsoDbuKheBEqoZG-33" value="&lt;span style=&quot;font-family: sans-serif; font-weight: 400; background-color: rgb(56, 62, 71); font-size: 13px;&quot;&gt;&lt;font style=&quot;line-height: 0; font-size: 13px;&quot;&gt;␣&lt;/font&gt;&lt;/span&gt;" style="whiteSpace=wrap;html=1;aspect=fixed;rotation=-30;fontSize=13;fontFamily=Verdana;fontStyle=1;fontColor=#AFB9C7;fillColor=#383E47;rounded=1;" parent="1" vertex="1">
          <mxGeometry x="326" y="227" width="40" height="40" as="geometry" />
        </mxCell>
        <mxCell id="qOO70KsoDbuKheBEqoZG-34" value="L1" style="whiteSpace=wrap;html=1;aspect=fixed;rotation=-15;fontSize=13;fontFamily=Verdana;fontStyle=1;fillColor=#1BA1E2;strokeColor=#006EAF;fontColor=#ffffff;rounded=1;" parent="1" vertex="1">
          <mxGeometry x="374" y="209" width="40" height="40" as="geometry" />
        </mxCell>
        <mxCell id="qOO70KsoDbuKheBEqoZG-35" value="&lt;b style=&quot;font-size: 13px;&quot;&gt;L0&lt;/b&gt;" style="rounded=0;whiteSpace=wrap;html=1;fontFamily=Verdana;fontSize=13;fontColor=#AFB9C7;fillColor=#383E47;" parent="1" vertex="1">
          <mxGeometry x="184.5" y="30" width="210" height="30" as="geometry" />
        </mxCell>
        <mxCell id="qOO70KsoDbuKheBEqoZG-36" value="0 )" style="whiteSpace=wrap;html=1;aspect=fixed;fontSize=13;fontFamily=Verdana;fontStyle=1;fontColor=#AFB9C7;fillColor=#383E47;rounded=1;" parent="1" vertex="1">
          <mxGeometry x="26" y="381" width="40" height="40" as="geometry" />
        </mxCell>
        <mxCell id="qOO70KsoDbuKheBEqoZG-37" value="1 !" style="whiteSpace=wrap;html=1;aspect=fixed;fontSize=13;fontFamily=Verdana;fontStyle=1;fontColor=#AFB9C7;fillColor=#383E47;rounded=1;" parent="1" vertex="1">
          <mxGeometry x="66" y="356" width="40" height="40" as="geometry" />
        </mxCell>
        <mxCell id="qOO70KsoDbuKheBEqoZG-38" value="2 @" style="whiteSpace=wrap;html=1;aspect=fixed;fontSize=13;fontFamily=Verdana;fontStyle=1;fontColor=#AFB9C7;fillColor=#383E47;rounded=1;" parent="1" vertex="1">
          <mxGeometry x="106" y="341" width="40" height="40" as="geometry" />
        </mxCell>
        <mxCell id="qOO70KsoDbuKheBEqoZG-39" value="3 #" style="whiteSpace=wrap;html=1;aspect=fixed;fontSize=13;fontFamily=Verdana;fontStyle=1;fontColor=#AFB9C7;fillColor=#383E47;rounded=1;" parent="1" vertex="1">
          <mxGeometry x="146" y="356" width="40" height="40" as="geometry" />
        </mxCell>
        <mxCell id="qOO70KsoDbuKheBEqoZG-40" value="" style="whiteSpace=wrap;html=1;aspect=fixed;fontSize=13;fontFamily=Verdana;fontStyle=1;fontColor=#AFB9C7;fillColor=#383E47;rounded=1;" parent="1" vertex="1">
          <mxGeometry x="186" y="364" width="40" height="40" as="geometry" />
        </mxCell>
        <mxCell id="qOO70KsoDbuKheBEqoZG-41" value="` ~" style="whiteSpace=wrap;html=1;aspect=fixed;fontSize=13;fontFamily=Verdana;fontStyle=1;fontColor=#AFB9C7;fillColor=#383E47;rounded=1;" parent="1" vertex="1">
          <mxGeometry x="26" y="421" width="40" height="40" as="geometry" />
        </mxCell>
        <mxCell id="qOO70KsoDbuKheBEqoZG-42" value="&lt;font style=&quot;font-size: 13px;&quot;&gt;4 $&lt;/font&gt;" style="whiteSpace=wrap;html=1;aspect=fixed;fontSize=13;fontFamily=Verdana;fontStyle=1;fontColor=#AFB9C7;fillColor=#383E47;rounded=1;strokeColor=default;" parent="1" vertex="1">
          <mxGeometry x="66" y="396" width="40" height="40" as="geometry" />
        </mxCell>
        <mxCell id="qOO70KsoDbuKheBEqoZG-43" value="&lt;font style=&quot;font-size: 13px;&quot;&gt;5 %&lt;/font&gt;" style="whiteSpace=wrap;html=1;aspect=fixed;fontSize=13;fontFamily=Verdana;fontStyle=1;fontColor=#AFB9C7;fillColor=#383E47;rounded=1;strokeColor=default;" parent="1" vertex="1">
          <mxGeometry x="106" y="381" width="40" height="40" as="geometry" />
        </mxCell>
        <mxCell id="qOO70KsoDbuKheBEqoZG-44" value="6 ^" style="whiteSpace=wrap;html=1;aspect=fixed;fontSize=13;fontFamily=Verdana;fontStyle=1;fontColor=#AFB9C7;fillColor=#383E47;rounded=1;" parent="1" vertex="1">
          <mxGeometry x="146" y="396" width="40" height="40" as="geometry" />
        </mxCell>
        <mxCell id="qOO70KsoDbuKheBEqoZG-45" value="" style="whiteSpace=wrap;html=1;aspect=fixed;fontSize=13;fontFamily=Verdana;fontStyle=1;fontColor=#AFB9C7;fillColor=#383E47;rounded=1;" parent="1" vertex="1">
          <mxGeometry x="186" y="404" width="40" height="40" as="geometry" />
        </mxCell>
        <mxCell id="qOO70KsoDbuKheBEqoZG-46" value="" style="whiteSpace=wrap;html=1;aspect=fixed;fontSize=13;fontFamily=Verdana;fontStyle=1;fontColor=#AFB9C7;fillColor=#383E47;rounded=1;" parent="1" vertex="1">
          <mxGeometry x="26" y="461" width="40" height="40" as="geometry" />
        </mxCell>
        <mxCell id="qOO70KsoDbuKheBEqoZG-47" value="7 &amp;amp;" style="whiteSpace=wrap;html=1;aspect=fixed;fontSize=13;fontFamily=Verdana;fontStyle=1;fontColor=#AFB9C7;fillColor=#383E47;rounded=1;" parent="1" vertex="1">
          <mxGeometry x="66" y="436" width="40" height="40" as="geometry" />
        </mxCell>
        <mxCell id="qOO70KsoDbuKheBEqoZG-48" value="8 *" style="whiteSpace=wrap;html=1;aspect=fixed;fontSize=13;fontFamily=Verdana;fontStyle=1;fontColor=#AFB9C7;fillColor=#383E47;rounded=1;" parent="1" vertex="1">
          <mxGeometry x="106" y="421" width="40" height="40" as="geometry" />
        </mxCell>
        <mxCell id="qOO70KsoDbuKheBEqoZG-49" value="9 (" style="whiteSpace=wrap;html=1;aspect=fixed;fontSize=13;fontFamily=Verdana;fontStyle=1;fontColor=#AFB9C7;fillColor=#383E47;rounded=1;" parent="1" vertex="1">
          <mxGeometry x="146" y="436" width="40" height="40" as="geometry" />
        </mxCell>
        <mxCell id="qOO70KsoDbuKheBEqoZG-50" value="" style="whiteSpace=wrap;html=1;aspect=fixed;fontSize=13;fontFamily=Verdana;fontStyle=1;fontColor=#AFB9C7;fillColor=#383E47;rounded=1;" parent="1" vertex="1">
          <mxGeometry x="186" y="444" width="40" height="40" as="geometry" />
        </mxCell>
        <mxCell id="qOO70KsoDbuKheBEqoZG-51" value="" style="whiteSpace=wrap;html=1;aspect=fixed;rotation=15;fontSize=13;fontFamily=Verdana;fontStyle=1;fontColor=#ffffff;fillColor=none;strokeColor=#6F0000;rounded=1;dashed=1;" parent="1" vertex="1">
          <mxGeometry x="166" y="490" width="40" height="40" as="geometry" />
        </mxCell>
        <mxCell id="qOO70KsoDbuKheBEqoZG-52" value="" style="whiteSpace=wrap;html=1;aspect=fixed;rotation=30;fontSize=13;fontFamily=Verdana;fontStyle=1;fontColor=#AFB9C7;fillColor=none;strokeColor=#000000;rounded=1;dashed=1;" parent="1" vertex="1">
          <mxGeometry x="214" y="508" width="40" height="40" as="geometry" />
        </mxCell>
        <mxCell id="qOO70KsoDbuKheBEqoZG-68" value="" style="whiteSpace=wrap;html=1;aspect=fixed;rotation=-30;fontSize=13;fontFamily=Verdana;fontStyle=1;fontColor=#AFB9C7;fillColor=none;rounded=1;dashed=1;strokeColor=#000000;" parent="1" vertex="1">
          <mxGeometry x="326" y="508" width="40" height="40" as="geometry" />
        </mxCell>
        <mxCell id="qOO70KsoDbuKheBEqoZG-70" value="&lt;b style=&quot;font-size: 13px;&quot;&gt;L1&lt;/b&gt;" style="rounded=0;whiteSpace=wrap;html=1;fontFamily=Verdana;fontSize=13;fillColor=#1ba1e2;strokeColor=#006EAF;fontStyle=0;fontColor=#ffffff;" parent="1" vertex="1">
          <mxGeometry x="184.5" y="311" width="210" height="30" as="geometry" />
        </mxCell>
        <mxCell id="qOO70KsoDbuKheBEqoZG-106" value="&lt;span style=&quot;font-size: 13px;&quot;&gt;esc&lt;/span&gt;" style="whiteSpace=wrap;html=1;aspect=fixed;fontSize=13;fontFamily=Verdana;fontStyle=1;fontColor=#AFB9C7;fillColor=#383E47;rounded=1;" parent="1" vertex="1">
          <mxGeometry x="26" y="653" width="40" height="40" as="geometry" />
        </mxCell>
        <mxCell id="qOO70KsoDbuKheBEqoZG-107" value="lck&lt;br style=&quot;color: rgb(255, 255, 255);&quot;&gt;&lt;span style=&quot;color: rgb(255, 255, 255);&quot;&gt;mod&lt;/span&gt;&lt;span style=&quot;font-size: 13px;&quot;&gt;&lt;br style=&quot;font-size: 13px;&quot;&gt;&lt;/span&gt;" style="whiteSpace=wrap;html=1;aspect=fixed;fontSize=13;fontFamily=Verdana;fontStyle=1;fontColor=#ffffff;fillColor=#0050ef;rounded=1;strokeColor=#001DBC;" parent="1" vertex="1">
          <mxGeometry x="66" y="628" width="40" height="40" as="geometry" />
        </mxCell>
        <mxCell id="qOO70KsoDbuKheBEqoZG-108" value="" style="whiteSpace=wrap;html=1;aspect=fixed;fontSize=13;fontFamily=Verdana;fontStyle=1;fontColor=#AFB9C7;fillColor=#383E47;rounded=1;strokeColor=default;" parent="1" vertex="1">
          <mxGeometry x="106" y="613" width="40" height="40" as="geometry" />
        </mxCell>
        <mxCell id="qOO70KsoDbuKheBEqoZG-109" value="unlck&lt;br style=&quot;color: rgb(255, 255, 255);&quot;&gt;&lt;span style=&quot;color: rgb(255, 255, 255);&quot;&gt;mod&lt;/span&gt;" style="whiteSpace=wrap;html=1;aspect=fixed;fontSize=13;fontFamily=Verdana;fontStyle=1;fontColor=#ffffff;fillColor=#0050ef;rounded=1;strokeColor=#001DBC;" parent="1" vertex="1">
          <mxGeometry x="146" y="628" width="40" height="40" as="geometry" />
        </mxCell>
        <mxCell id="qOO70KsoDbuKheBEqoZG-110" value="" style="whiteSpace=wrap;html=1;aspect=fixed;fontSize=13;fontFamily=Verdana;fontStyle=1;fontColor=#AFB9C7;fillColor=#383E47;rounded=1;strokeColor=default;" parent="1" vertex="1">
          <mxGeometry x="186" y="636" width="40" height="40" as="geometry" />
        </mxCell>
        <mxCell id="qOO70KsoDbuKheBEqoZG-111" value="&lt;font style=&quot;font-size: 13px;&quot;&gt;alt&lt;/font&gt;" style="whiteSpace=wrap;html=1;aspect=fixed;fontSize=13;fontFamily=Verdana;fontStyle=1;fillColor=#ffb86c;strokeColor=#d79b00;fontColor=#302316;rounded=1;" parent="1" vertex="1">
          <mxGeometry x="26" y="693" width="40" height="40" as="geometry" />
        </mxCell>
        <mxCell id="qOO70KsoDbuKheBEqoZG-112" value="cmd" style="whiteSpace=wrap;html=1;aspect=fixed;fontSize=13;fontFamily=Verdana;fontStyle=1;fillColor=#ffb86c;strokeColor=#d79b00;fontColor=#302316;rounded=1;" parent="1" vertex="1">
          <mxGeometry x="66" y="668" width="40" height="40" as="geometry" />
        </mxCell>
        <mxCell id="qOO70KsoDbuKheBEqoZG-113" value="ctrl" style="whiteSpace=wrap;html=1;aspect=fixed;fontSize=13;fontFamily=Verdana;fontStyle=1;fillColor=#ffb86c;strokeColor=#d79b00;fontColor=#302316;rounded=1;" parent="1" vertex="1">
          <mxGeometry x="106" y="653" width="40" height="40" as="geometry" />
        </mxCell>
        <mxCell id="qOO70KsoDbuKheBEqoZG-114" value="shift" style="whiteSpace=wrap;html=1;aspect=fixed;fontSize=13;fontFamily=Verdana;fontStyle=1;fillColor=#ffb86c;strokeColor=#d79b00;fontColor=#302316;rounded=1;" parent="1" vertex="1">
          <mxGeometry x="146" y="668" width="40" height="40" as="geometry" />
        </mxCell>
        <mxCell id="qOO70KsoDbuKheBEqoZG-115" value="" style="whiteSpace=wrap;html=1;aspect=fixed;fontSize=13;fontFamily=Verdana;fontStyle=1;fillColor=#383E47;strokeColor=default;fontColor=#AFB9C7;rounded=1;" parent="1" vertex="1">
          <mxGeometry x="186" y="676" width="40" height="40" as="geometry" />
        </mxCell>
        <mxCell id="qOO70KsoDbuKheBEqoZG-116" value="tab" style="whiteSpace=wrap;html=1;aspect=fixed;fontSize=13;fontFamily=Verdana;fontStyle=1;fontColor=#AFB9C7;fillColor=#383E47;rounded=1;strokeColor=default;" parent="1" vertex="1">
          <mxGeometry x="26" y="733" width="40" height="40" as="geometry" />
        </mxCell>
        <mxCell id="qOO70KsoDbuKheBEqoZG-117" value="&lt;span style=&quot;font-size: 13px;&quot;&gt;cut&lt;/span&gt;" style="whiteSpace=wrap;html=1;aspect=fixed;fontSize=13;fontFamily=Verdana;fontStyle=1;fontColor=#AFB9C7;fillColor=#383E47;rounded=1;strokeColor=default;" parent="1" vertex="1">
          <mxGeometry x="66" y="708" width="40" height="40" as="geometry" />
        </mxCell>
        <mxCell id="qOO70KsoDbuKheBEqoZG-118" value="&lt;span style=&quot;font-size: 13px;&quot;&gt;copy&lt;/span&gt;" style="whiteSpace=wrap;html=1;aspect=fixed;fontSize=13;fontFamily=Verdana;fontStyle=1;fontColor=#AFB9C7;fillColor=#383E47;rounded=1;strokeColor=default;" parent="1" vertex="1">
          <mxGeometry x="106" y="693" width="40" height="40" as="geometry" />
        </mxCell>
        <mxCell id="qOO70KsoDbuKheBEqoZG-119" value="&lt;span style=&quot;font-size: 13px;&quot;&gt;paste&lt;/span&gt;" style="whiteSpace=wrap;html=1;aspect=fixed;fontSize=13;fontFamily=Verdana;fontStyle=1;fontColor=#AFB9C7;fillColor=#383E47;rounded=1;strokeColor=default;" parent="1" vertex="1">
          <mxGeometry x="146" y="708" width="40" height="40" as="geometry" />
        </mxCell>
        <mxCell id="qOO70KsoDbuKheBEqoZG-120" value="" style="whiteSpace=wrap;html=1;aspect=fixed;fontSize=13;fontFamily=Verdana;fontStyle=1;fontColor=#AFB9C7;fillColor=#383E47;rounded=1;strokeColor=default;" parent="1" vertex="1">
          <mxGeometry x="186" y="716" width="40" height="40" as="geometry" />
        </mxCell>
        <mxCell id="qOO70KsoDbuKheBEqoZG-121" value="" style="whiteSpace=wrap;html=1;aspect=fixed;rotation=15;fontSize=13;fontFamily=Verdana;fontStyle=1;fontColor=#333333;fillColor=none;strokeColor=#A20025;rounded=1;shadow=0;dashed=1;glass=0;sketch=0;" parent="1" vertex="1">
          <mxGeometry x="166" y="762" width="40" height="40" as="geometry" />
        </mxCell>
        <mxCell id="qOO70KsoDbuKheBEqoZG-122" value="" style="whiteSpace=wrap;html=1;aspect=fixed;rotation=30;fontSize=13;fontFamily=Verdana;fontStyle=1;fontColor=#AFB9C7;fillColor=none;rounded=1;dashed=1;" parent="1" vertex="1">
          <mxGeometry x="214" y="780" width="40" height="40" as="geometry" />
        </mxCell>
        <mxCell id="qOO70KsoDbuKheBEqoZG-140" value="L2" style="rounded=0;whiteSpace=wrap;html=1;fontFamily=Verdana;fontSize=13;fontStyle=1;fillColor=#A20025;strokeColor=#6F0000;fontColor=#ffffff;" parent="1" vertex="1">
          <mxGeometry x="184.5" y="583" width="210" height="30" as="geometry" />
        </mxCell>
        <mxCell id="mtDLv7BoEO9TYiZXUcKj-38" value="&lt;span style=&quot;font-size: 13px;&quot;&gt;prtsc&lt;/span&gt;" style="whiteSpace=wrap;html=1;aspect=fixed;fontSize=13;fontFamily=Verdana;fontStyle=1;fontColor=#AFB9C7;fillColor=#383E47;rounded=1;" parent="1" vertex="1">
          <mxGeometry x="26" y="938" width="40" height="40" as="geometry" />
        </mxCell>
        <mxCell id="mtDLv7BoEO9TYiZXUcKj-39" value="&lt;span style=&quot;font-size: 13px;&quot;&gt;insert&lt;/span&gt;" style="whiteSpace=wrap;html=1;aspect=fixed;fontSize=13;fontFamily=Verdana;fontStyle=1;fontColor=#AFB9C7;fillColor=#383E47;rounded=1;" parent="1" vertex="1">
          <mxGeometry x="66" y="913" width="40" height="40" as="geometry" />
        </mxCell>
        <mxCell id="mtDLv7BoEO9TYiZXUcKj-40" value="" style="whiteSpace=wrap;html=1;aspect=fixed;fontSize=13;fontFamily=Verdana;fontStyle=1;fontColor=#AFB9C7;fillColor=#383E47;rounded=1;" parent="1" vertex="1">
          <mxGeometry x="106" y="898" width="40" height="40" as="geometry" />
        </mxCell>
        <mxCell id="mtDLv7BoEO9TYiZXUcKj-41" value="" style="whiteSpace=wrap;html=1;aspect=fixed;fontSize=13;fontFamily=Verdana;fontStyle=1;fontColor=#AFB9C7;fillColor=#383E47;rounded=1;" parent="1" vertex="1">
          <mxGeometry x="146" y="913" width="40" height="40" as="geometry" />
        </mxCell>
        <mxCell id="mtDLv7BoEO9TYiZXUcKj-42" value="" style="whiteSpace=wrap;html=1;aspect=fixed;fontSize=13;fontFamily=Verdana;fontStyle=1;fontColor=#AFB9C7;fillColor=#383E47;rounded=1;" parent="1" vertex="1">
          <mxGeometry x="186" y="921" width="40" height="40" as="geometry" />
        </mxCell>
        <mxCell id="mtDLv7BoEO9TYiZXUcKj-43" value="&lt;span style=&quot;color: rgb(175, 185, 199); font-size: 13px;&quot;&gt;menu&lt;/span&gt;" style="whiteSpace=wrap;html=1;aspect=fixed;fontSize=13;fontFamily=Verdana;fontStyle=1;fillColor=#383E47;strokeColor=default;fontColor=#AFB9C7;rounded=1;" parent="1" vertex="1">
          <mxGeometry x="26" y="1018" width="40" height="40" as="geometry" />
        </mxCell>
        <mxCell id="mtDLv7BoEO9TYiZXUcKj-44" value="&lt;span style=&quot;font-size: 13px;&quot;&gt;caps&lt;/span&gt;&lt;br style=&quot;font-size: 13px;&quot;&gt;&lt;span style=&quot;font-size: 13px;&quot;&gt;lock&lt;/span&gt;" style="whiteSpace=wrap;html=1;aspect=fixed;fontSize=13;fontFamily=Verdana;fontStyle=1;fontColor=#AFB9C7;fillColor=#383E47;rounded=1;strokeColor=default;" parent="1" vertex="1">
          <mxGeometry x="66" y="993" width="40" height="40" as="geometry" />
        </mxCell>
        <mxCell id="mtDLv7BoEO9TYiZXUcKj-45" value="" style="whiteSpace=wrap;html=1;aspect=fixed;fontSize=13;fontFamily=Verdana;fontStyle=1;fontColor=#AFB9C7;fillColor=#383E47;rounded=1;strokeColor=default;" parent="1" vertex="1">
          <mxGeometry x="106" y="978" width="40" height="40" as="geometry" />
        </mxCell>
        <mxCell id="mtDLv7BoEO9TYiZXUcKj-46" value="" style="whiteSpace=wrap;html=1;aspect=fixed;fontSize=13;fontFamily=Verdana;fontStyle=1;fontColor=#AFB9C7;fillColor=#383E47;rounded=1;" parent="1" vertex="1">
          <mxGeometry x="146" y="993" width="40" height="40" as="geometry" />
        </mxCell>
        <mxCell id="mtDLv7BoEO9TYiZXUcKj-47" value="prog" style="whiteSpace=wrap;html=1;aspect=fixed;fontSize=13;fontFamily=Verdana;fontStyle=1;fillColor=#383E47;strokeColor=default;fontColor=#AFB9C7;rounded=1;" parent="1" vertex="1">
          <mxGeometry x="186" y="1001" width="40" height="40" as="geometry" />
        </mxCell>
        <mxCell id="mtDLv7BoEO9TYiZXUcKj-48" value="" style="whiteSpace=wrap;html=1;aspect=fixed;fontSize=13;fontFamily=Verdana;fontStyle=1;fontColor=#AFB9C7;fillColor=#383E47;rounded=1;" parent="1" vertex="1">
          <mxGeometry x="354" y="921" width="40" height="40" as="geometry" />
        </mxCell>
        <mxCell id="mtDLv7BoEO9TYiZXUcKj-49" value="&lt;font color=&quot;#000000&quot;&gt;bt 0&lt;/font&gt;" style="whiteSpace=wrap;html=1;aspect=fixed;fontSize=13;fontFamily=Verdana;fontStyle=1;fontColor=#AFB9C7;fillColor=#5C8CCA;rounded=1;" parent="1" vertex="1">
          <mxGeometry x="394" y="913" width="40" height="40" as="geometry" />
        </mxCell>
        <mxCell id="mtDLv7BoEO9TYiZXUcKj-50" value="&lt;font color=&quot;#000000&quot;&gt;bt 1&lt;/font&gt;" style="whiteSpace=wrap;html=1;aspect=fixed;fontSize=13;fontFamily=Verdana;fontStyle=1;fontColor=#AFB9C7;fillColor=#5C8CCA;rounded=1;" parent="1" vertex="1">
          <mxGeometry x="434" y="898" width="40" height="40" as="geometry" />
        </mxCell>
        <mxCell id="mtDLv7BoEO9TYiZXUcKj-51" value="&lt;font color=&quot;#000000&quot;&gt;bt 2&lt;/font&gt;" style="whiteSpace=wrap;html=1;aspect=fixed;fontSize=13;fontFamily=Verdana;fontStyle=1;fontColor=#AFB9C7;fillColor=#5C8CCA;rounded=1;" parent="1" vertex="1">
          <mxGeometry x="474" y="913" width="40" height="40" as="geometry" />
        </mxCell>
        <mxCell id="mtDLv7BoEO9TYiZXUcKj-52" value="&lt;font color=&quot;#000000&quot; style=&quot;font-size: 13px;&quot;&gt;&lt;span style=&quot;font-size: 13px;&quot;&gt;bt&lt;br style=&quot;font-size: 13px;&quot;&gt;&lt;/span&gt;&lt;/font&gt;&lt;font color=&quot;#000000&quot; style=&quot;font-size: 13px;&quot;&gt;&lt;span style=&quot;font-size: 13px;&quot;&gt;clear&lt;/span&gt;&lt;/font&gt;" style="whiteSpace=wrap;html=1;aspect=fixed;fontSize=13;fontFamily=Verdana;fontStyle=1;fontColor=#AFB9C7;fillColor=#5C8CCA;rounded=1;" parent="1" vertex="1">
          <mxGeometry x="514" y="938" width="40" height="40" as="geometry" />
        </mxCell>
        <mxCell id="mtDLv7BoEO9TYiZXUcKj-53" value="&lt;span style=&quot;font-size: 13px;&quot;&gt;rst&lt;/span&gt;" style="whiteSpace=wrap;html=1;aspect=fixed;fontSize=13;fontFamily=Verdana;fontStyle=1;fontColor=#AFB9C7;fillColor=#383E47;rounded=1;" parent="1" vertex="1">
          <mxGeometry x="354" y="961" width="40" height="40" as="geometry" />
        </mxCell>
        <mxCell id="mtDLv7BoEO9TYiZXUcKj-54" value="" style="whiteSpace=wrap;html=1;aspect=fixed;fontSize=13;fontFamily=Verdana;fontStyle=1;fontColor=#AFB9C7;fillColor=#383E47;rounded=1;" parent="1" vertex="1">
          <mxGeometry x="394" y="953" width="40" height="40" as="geometry" />
        </mxCell>
        <mxCell id="mtDLv7BoEO9TYiZXUcKj-55" value="" style="whiteSpace=wrap;html=1;aspect=fixed;fontSize=13;fontFamily=Verdana;fontStyle=1;fontColor=#AFB9C7;fillColor=#383E47;rounded=1;" parent="1" vertex="1">
          <mxGeometry x="434" y="938" width="40" height="40" as="geometry" />
        </mxCell>
        <mxCell id="mtDLv7BoEO9TYiZXUcKj-56" value="" style="whiteSpace=wrap;html=1;aspect=fixed;fontSize=13;fontFamily=Verdana;fontStyle=1;fontColor=#AFB9C7;fillColor=#383E47;rounded=1;" parent="1" vertex="1">
          <mxGeometry x="474" y="953" width="40" height="40" as="geometry" />
        </mxCell>
        <mxCell id="mtDLv7BoEO9TYiZXUcKj-57" value="usb" style="whiteSpace=wrap;html=1;aspect=fixed;fontSize=13;fontFamily=Verdana;fontStyle=1;fontColor=#AFB9C7;fillColor=#383E47;rounded=1;" parent="1" vertex="1">
          <mxGeometry x="514" y="978" width="40" height="40" as="geometry" />
        </mxCell>
        <mxCell id="mtDLv7BoEO9TYiZXUcKj-58" value="prog" style="whiteSpace=wrap;html=1;aspect=fixed;fontSize=13;fontFamily=Verdana;fontStyle=1;fillColor=#383E47;strokeColor=default;fontColor=#AFB9C7;rounded=1;" parent="1" vertex="1">
          <mxGeometry x="354" y="1001" width="40" height="40" as="geometry" />
        </mxCell>
        <mxCell id="mtDLv7BoEO9TYiZXUcKj-59" value="" style="whiteSpace=wrap;html=1;aspect=fixed;fontSize=13;fontFamily=Verdana;fontStyle=1;fontColor=#AFB9C7;fillColor=#383E47;rounded=1;" parent="1" vertex="1">
          <mxGeometry x="394" y="993" width="40" height="40" as="geometry" />
        </mxCell>
        <mxCell id="mtDLv7BoEO9TYiZXUcKj-60" value="" style="whiteSpace=wrap;html=1;aspect=fixed;fontSize=13;fontFamily=Verdana;fontStyle=1;fontColor=#AFB9C7;fillColor=#383E47;rounded=1;" parent="1" vertex="1">
          <mxGeometry x="434" y="978" width="40" height="40" as="geometry" />
        </mxCell>
        <mxCell id="mtDLv7BoEO9TYiZXUcKj-61" value="" style="whiteSpace=wrap;html=1;aspect=fixed;fontSize=13;fontFamily=Verdana;fontStyle=1;fontColor=#AFB9C7;fillColor=#383E47;rounded=1;" parent="1" vertex="1">
          <mxGeometry x="474" y="993" width="40" height="40" as="geometry" />
        </mxCell>
        <mxCell id="mtDLv7BoEO9TYiZXUcKj-62" value="&lt;span style=&quot;font-size: 13px;&quot;&gt;bt&lt;/span&gt;" style="whiteSpace=wrap;html=1;aspect=fixed;fontSize=13;fontFamily=Verdana;fontStyle=1;fontColor=#AFB9C7;fillColor=#383E47;rounded=1;" parent="1" vertex="1">
          <mxGeometry x="514" y="1018" width="40" height="40" as="geometry" />
        </mxCell>
        <mxCell id="mtDLv7BoEO9TYiZXUcKj-63" value="" style="whiteSpace=wrap;html=1;aspect=fixed;rotation=-30;fontSize=13;fontFamily=Verdana;fontStyle=1;fontColor=#AFB9C7;fillColor=#383E47;rounded=1;strokeColor=default;gradientColor=none;" parent="1" vertex="1">
          <mxGeometry x="326" y="1065" width="40" height="40" as="geometry" />
        </mxCell>
        <mxCell id="mtDLv7BoEO9TYiZXUcKj-64" value="" style="whiteSpace=wrap;html=1;aspect=fixed;rotation=-15;fontSize=13;fontFamily=Verdana;fontStyle=1;fontColor=#AFB9C7;fillColor=#383E47;strokeColor=default;rounded=1;shadow=0;glass=0;sketch=0;" parent="1" vertex="1">
          <mxGeometry x="374" y="1047" width="40" height="40" as="geometry" />
        </mxCell>
        <mxCell id="mtDLv7BoEO9TYiZXUcKj-65" value="L3" style="rounded=0;whiteSpace=wrap;html=1;fontFamily=Verdana;fontSize=13;fontStyle=1;fillColor=#6a00ff;strokeColor=#3700CC;fontColor=#ffffff;" parent="1" vertex="1">
          <mxGeometry x="184.5" y="868" width="210" height="30" as="geometry" />
        </mxCell>
        <mxCell id="mtDLv7BoEO9TYiZXUcKj-66" value="pause" style="whiteSpace=wrap;html=1;aspect=fixed;fontSize=13;fontFamily=Verdana;fontStyle=1;fillColor=#383E47;strokeColor=default;fontColor=#AFB9C7;rounded=1;" parent="1" vertex="1">
          <mxGeometry x="26" y="978" width="40" height="40" as="geometry" />
        </mxCell>
        <mxCell id="mtDLv7BoEO9TYiZXUcKj-67" value="slck" style="whiteSpace=wrap;html=1;aspect=fixed;fontSize=13;fontFamily=Verdana;fontStyle=1;fillColor=#383E47;strokeColor=default;fontColor=#AFB9C7;rounded=1;" parent="1" vertex="1">
          <mxGeometry x="66" y="953" width="40" height="40" as="geometry" />
        </mxCell>
        <mxCell id="mtDLv7BoEO9TYiZXUcKj-68" value="" style="whiteSpace=wrap;html=1;aspect=fixed;fontSize=13;fontFamily=Verdana;fontStyle=1;fillColor=#383E47;strokeColor=default;fontColor=#AFB9C7;rounded=1;" parent="1" vertex="1">
          <mxGeometry x="106" y="938" width="40" height="40" as="geometry" />
        </mxCell>
        <mxCell id="mtDLv7BoEO9TYiZXUcKj-69" value="" style="whiteSpace=wrap;html=1;aspect=fixed;fontSize=13;fontFamily=Verdana;fontStyle=1;fillColor=#383E47;strokeColor=default;fontColor=#AFB9C7;rounded=1;" parent="1" vertex="1">
          <mxGeometry x="146" y="953" width="40" height="40" as="geometry" />
        </mxCell>
        <mxCell id="mtDLv7BoEO9TYiZXUcKj-70" value="&lt;span style=&quot;font-size: 13px;&quot;&gt;rst&lt;/span&gt;" style="whiteSpace=wrap;html=1;aspect=fixed;fontSize=13;fontFamily=Verdana;fontStyle=1;fillColor=#383E47;strokeColor=default;fontColor=#AFB9C7;rounded=1;" parent="1" vertex="1">
          <mxGeometry x="186" y="961" width="40" height="40" as="geometry" />
        </mxCell>
        <mxCell id="mtDLv7BoEO9TYiZXUcKj-71" value="" style="whiteSpace=wrap;html=1;aspect=fixed;rotation=15;fontSize=13;fontFamily=Verdana;fontStyle=1;fontColor=#AFB9C7;fillColor=#383E47;strokeColor=default;rounded=1;shadow=0;glass=0;sketch=0;" parent="1" vertex="1">
          <mxGeometry x="166" y="1047" width="40" height="40" as="geometry" />
        </mxCell>
        <mxCell id="mtDLv7BoEO9TYiZXUcKj-72" value="" style="whiteSpace=wrap;html=1;aspect=fixed;rotation=30;fontSize=13;fontFamily=Verdana;fontStyle=1;fontColor=#AFB9C7;fillColor=#383E47;rounded=1;strokeColor=default;gradientColor=none;" parent="1" vertex="1">
          <mxGeometry x="214" y="1065" width="40" height="40" as="geometry" />
        </mxCell>
        <mxCell id="VqWyA_MeXVN1tjf2iSKF-1" value="" style="whiteSpace=wrap;html=1;aspect=fixed;fontSize=13;fontFamily=Verdana;fontStyle=1;fontColor=#AFB9C7;fillColor=#383E47;rounded=1;strokeColor=default;" vertex="1" parent="1">
          <mxGeometry x="354" y="364" width="40" height="40" as="geometry" />
        </mxCell>
        <mxCell id="VqWyA_MeXVN1tjf2iSKF-2" value="(" style="whiteSpace=wrap;html=1;aspect=fixed;fontSize=13;fontFamily=Verdana;fontStyle=1;fontColor=#AFB9C7;fillColor=#383E47;rounded=1;" vertex="1" parent="1">
          <mxGeometry x="394" y="356" width="40" height="40" as="geometry" />
        </mxCell>
        <mxCell id="VqWyA_MeXVN1tjf2iSKF-3" value="[ {" style="whiteSpace=wrap;html=1;aspect=fixed;fontSize=13;fontFamily=Verdana;fontStyle=1;fontColor=#AFB9C7;fillColor=#383E47;rounded=1;" vertex="1" parent="1">
          <mxGeometry x="434" y="341" width="40" height="40" as="geometry" />
        </mxCell>
        <mxCell id="VqWyA_MeXVN1tjf2iSKF-4" value="= +" style="whiteSpace=wrap;html=1;aspect=fixed;fontSize=13;fontFamily=Verdana;fontStyle=1;fontColor=#AFB9C7;fillColor=#383E47;rounded=1;" vertex="1" parent="1">
          <mxGeometry x="474" y="356" width="40" height="40" as="geometry" />
        </mxCell>
        <mxCell id="VqWyA_MeXVN1tjf2iSKF-5" value="] }" style="whiteSpace=wrap;html=1;aspect=fixed;fontSize=13;fontFamily=Verdana;fontStyle=1;fontColor=#AFB9C7;fillColor=#383E47;rounded=1;strokeColor=default;rotation=0;" vertex="1" parent="1">
          <mxGeometry x="514" y="381" width="40" height="40" as="geometry" />
        </mxCell>
        <mxCell id="VqWyA_MeXVN1tjf2iSKF-6" value="&lt;span style=&quot;font-size: 13px;&quot;&gt;&lt;br style=&quot;font-size: 13px;&quot;&gt;&lt;/span&gt;" style="whiteSpace=wrap;html=1;aspect=fixed;fontSize=13;fontFamily=Verdana;fontStyle=1;fontColor=#AFB9C7;fillColor=#383E47;rounded=1;rotation=0;" vertex="1" parent="1">
          <mxGeometry x="354" y="404" width="40" height="40" as="geometry" />
        </mxCell>
        <mxCell id="VqWyA_MeXVN1tjf2iSKF-7" value="&lt;font style=&quot;font-size: 13px;&quot;&gt;shift&lt;/font&gt;" style="whiteSpace=wrap;html=1;aspect=fixed;fontSize=13;fontFamily=Verdana;fontStyle=1;fontColor=#302316;fillColor=#ffb86c;rounded=1;strokeColor=#d79b00;" vertex="1" parent="1">
          <mxGeometry x="394" y="396" width="40" height="40" as="geometry" />
        </mxCell>
        <mxCell id="VqWyA_MeXVN1tjf2iSKF-8" value="&lt;font style=&quot;font-size: 13px;&quot;&gt;ctrl&lt;/font&gt;" style="whiteSpace=wrap;html=1;aspect=fixed;fontSize=13;fontFamily=Verdana;fontStyle=1;fontColor=#302316;fillColor=#ffb86c;rounded=1;strokeColor=#d79b00;" vertex="1" parent="1">
          <mxGeometry x="434" y="381" width="40" height="40" as="geometry" />
        </mxCell>
        <mxCell id="VqWyA_MeXVN1tjf2iSKF-9" value="&lt;font style=&quot;font-size: 13px;&quot;&gt;cmd&lt;/font&gt;" style="whiteSpace=wrap;html=1;aspect=fixed;fontSize=13;fontFamily=Verdana;fontStyle=1;fontColor=#302316;fillColor=#ffb86c;rounded=1;strokeColor=#d79b00;" vertex="1" parent="1">
          <mxGeometry x="474" y="396" width="40" height="40" as="geometry" />
        </mxCell>
        <mxCell id="VqWyA_MeXVN1tjf2iSKF-10" value="&lt;font style=&quot;font-size: 13px;&quot;&gt;alt&lt;/font&gt;" style="whiteSpace=wrap;html=1;aspect=fixed;fontSize=13;fontFamily=Verdana;fontStyle=1;fontColor=#302316;fillColor=#ffb86c;rounded=1;strokeColor=#d79b00;" vertex="1" parent="1">
          <mxGeometry x="514" y="421" width="40" height="40" as="geometry" />
        </mxCell>
        <mxCell id="VqWyA_MeXVN1tjf2iSKF-11" value="" style="whiteSpace=wrap;html=1;aspect=fixed;fontSize=13;fontFamily=Verdana;fontStyle=1;fontColor=#AFB9C7;fillColor=#383E47;rounded=1;strokeColor=default;" vertex="1" parent="1">
          <mxGeometry x="354" y="444" width="40" height="40" as="geometry" />
        </mxCell>
        <mxCell id="VqWyA_MeXVN1tjf2iSKF-12" value=")" style="whiteSpace=wrap;html=1;aspect=fixed;fontSize=13;fontFamily=Verdana;fontStyle=1;fontColor=#AFB9C7;fillColor=#383E47;rounded=1;strokeColor=default;" vertex="1" parent="1">
          <mxGeometry x="394" y="436" width="40" height="40" as="geometry" />
        </mxCell>
        <mxCell id="VqWyA_MeXVN1tjf2iSKF-13" value="- _" style="whiteSpace=wrap;html=1;aspect=fixed;fontSize=13;fontFamily=Verdana;fontStyle=1;fontColor=#AFB9C7;fillColor=#383E47;rounded=1;strokeColor=default;" vertex="1" parent="1">
          <mxGeometry x="434" y="421" width="40" height="40" as="geometry" />
        </mxCell>
        <mxCell id="VqWyA_MeXVN1tjf2iSKF-14" value="\ |" style="whiteSpace=wrap;html=1;aspect=fixed;fontSize=13;fontFamily=Verdana;fontStyle=1;fontColor=#AFB9C7;fillColor=#383E47;rounded=1;strokeColor=default;" vertex="1" parent="1">
          <mxGeometry x="474" y="436" width="40" height="40" as="geometry" />
        </mxCell>
        <mxCell id="VqWyA_MeXVN1tjf2iSKF-15" value="/ ?" style="whiteSpace=wrap;html=1;aspect=fixed;fontSize=13;fontFamily=Verdana;fontStyle=1;fontColor=#AFB9C7;fillColor=#383E47;rounded=1;strokeColor=default;" vertex="1" parent="1">
          <mxGeometry x="514" y="461" width="40" height="40" as="geometry" />
        </mxCell>
        <mxCell id="VqWyA_MeXVN1tjf2iSKF-17" value="" style="whiteSpace=wrap;html=1;aspect=fixed;rotation=-15;fontSize=13;fontFamily=Verdana;fontStyle=1;fontColor=#333333;fillColor=none;strokeColor=#1BA1E2;rounded=1;dashed=1;shadow=0;sketch=0;glass=0;" vertex="1" parent="1">
          <mxGeometry x="374" y="490" width="40" height="40" as="geometry" />
        </mxCell>
        <mxCell id="VqWyA_MeXVN1tjf2iSKF-18" value="" style="whiteSpace=wrap;html=1;aspect=fixed;fontSize=13;fontFamily=Verdana;fontStyle=1;fontColor=#AFB9C7;fillColor=#383E47;rounded=1;" vertex="1" parent="1">
          <mxGeometry x="354" y="636" width="40" height="40" as="geometry" />
        </mxCell>
        <mxCell id="VqWyA_MeXVN1tjf2iSKF-19" value="home" style="whiteSpace=wrap;html=1;aspect=fixed;fontSize=13;fontFamily=Verdana;fontStyle=1;fontColor=#AFB9C7;fillColor=#383E47;rounded=1;" vertex="1" parent="1">
          <mxGeometry x="394" y="628" width="40" height="40" as="geometry" />
        </mxCell>
        <mxCell id="VqWyA_MeXVN1tjf2iSKF-20" value="↑" style="whiteSpace=wrap;html=1;aspect=fixed;fontSize=13;fontFamily=Verdana;fontStyle=1;fontColor=#AFB9C7;fillColor=#383E47;rounded=1;" vertex="1" parent="1">
          <mxGeometry x="434" y="613" width="40" height="40" as="geometry" />
        </mxCell>
        <mxCell id="VqWyA_MeXVN1tjf2iSKF-21" value="end" style="whiteSpace=wrap;html=1;aspect=fixed;fontSize=13;fontFamily=Verdana;fontStyle=1;fontColor=#AFB9C7;fillColor=#383E47;rounded=1;" vertex="1" parent="1">
          <mxGeometry x="474" y="628" width="40" height="40" as="geometry" />
        </mxCell>
        <mxCell id="VqWyA_MeXVN1tjf2iSKF-22" value="" style="whiteSpace=wrap;html=1;aspect=fixed;fontSize=13;fontFamily=Verdana;fontStyle=1;fontColor=#AFB9C7;fillColor=#383E47;rounded=1;" vertex="1" parent="1">
          <mxGeometry x="514" y="653" width="40" height="40" as="geometry" />
        </mxCell>
        <mxCell id="VqWyA_MeXVN1tjf2iSKF-23" value="⌫" style="whiteSpace=wrap;html=1;aspect=fixed;fontSize=13;fontFamily=Verdana;fontStyle=1;fontColor=#AFB9C7;fillColor=#383E47;rounded=1;strokeColor=default;rotation=-180;" vertex="1" parent="1">
          <mxGeometry x="354" y="676" width="40" height="40" as="geometry" />
        </mxCell>
        <mxCell id="VqWyA_MeXVN1tjf2iSKF-24" value="←" style="whiteSpace=wrap;html=1;aspect=fixed;fontSize=13;fontFamily=Verdana;fontStyle=1;fontColor=#AFB9C7;fillColor=#383E47;rounded=1;strokeColor=default;" vertex="1" parent="1">
          <mxGeometry x="394" y="668" width="40" height="40" as="geometry" />
        </mxCell>
        <mxCell id="VqWyA_MeXVN1tjf2iSKF-25" value="↓" style="whiteSpace=wrap;html=1;aspect=fixed;fontSize=13;fontFamily=Verdana;fontStyle=1;fontColor=#AFB9C7;fillColor=#383E47;rounded=1;strokeColor=default;" vertex="1" parent="1">
          <mxGeometry x="434" y="653" width="40" height="40" as="geometry" />
        </mxCell>
        <mxCell id="VqWyA_MeXVN1tjf2iSKF-26" value="→" style="whiteSpace=wrap;html=1;aspect=fixed;fontSize=13;fontFamily=Verdana;fontStyle=1;fontColor=#AFB9C7;fillColor=#383E47;rounded=1;strokeColor=default;" vertex="1" parent="1">
          <mxGeometry x="474" y="668" width="40" height="40" as="geometry" />
        </mxCell>
        <mxCell id="VqWyA_MeXVN1tjf2iSKF-27" value="⌫" style="whiteSpace=wrap;html=1;aspect=fixed;fontSize=13;fontFamily=Verdana;fontStyle=1;fontColor=#AFB9C7;fillColor=#383E47;rounded=1;strokeColor=default;rotation=0;" vertex="1" parent="1">
          <mxGeometry x="514" y="693" width="40" height="40" as="geometry" />
        </mxCell>
        <mxCell id="VqWyA_MeXVN1tjf2iSKF-28" value="" style="whiteSpace=wrap;html=1;aspect=fixed;fontSize=13;fontFamily=Verdana;fontStyle=1;fontColor=#AFB9C7;fillColor=#383E47;rounded=1;" vertex="1" parent="1">
          <mxGeometry x="354" y="716" width="40" height="40" as="geometry" />
        </mxCell>
        <mxCell id="VqWyA_MeXVN1tjf2iSKF-29" value="" style="whiteSpace=wrap;html=1;aspect=fixed;fontSize=13;fontFamily=Verdana;fontStyle=1;fontColor=#AFB9C7;fillColor=#383E47;rounded=1;" vertex="1" parent="1">
          <mxGeometry x="394" y="708" width="40" height="40" as="geometry" />
        </mxCell>
        <mxCell id="VqWyA_MeXVN1tjf2iSKF-30" value="" style="whiteSpace=wrap;html=1;aspect=fixed;fontSize=13;fontFamily=Verdana;fontStyle=1;fontColor=#AFB9C7;fillColor=#383E47;rounded=1;" vertex="1" parent="1">
          <mxGeometry x="434" y="693" width="40" height="40" as="geometry" />
        </mxCell>
        <mxCell id="VqWyA_MeXVN1tjf2iSKF-31" value="" style="whiteSpace=wrap;html=1;aspect=fixed;fontSize=13;fontFamily=Verdana;fontStyle=1;fontColor=#AFB9C7;fillColor=#383E47;rounded=1;" vertex="1" parent="1">
          <mxGeometry x="474" y="708" width="40" height="40" as="geometry" />
        </mxCell>
        <mxCell id="VqWyA_MeXVN1tjf2iSKF-32" value="" style="whiteSpace=wrap;html=1;aspect=fixed;fontSize=13;fontFamily=Verdana;fontStyle=1;fontColor=#AFB9C7;fillColor=#383E47;rounded=1;" vertex="1" parent="1">
          <mxGeometry x="514" y="733" width="40" height="40" as="geometry" />
        </mxCell>
        <mxCell id="VqWyA_MeXVN1tjf2iSKF-33" value="" style="whiteSpace=wrap;html=1;aspect=fixed;rotation=-30;fontSize=13;fontFamily=Verdana;fontStyle=1;fontColor=#AFB9C7;fillColor=none;rounded=1;dashed=1;strokeColor=#000000;" vertex="1" parent="1">
          <mxGeometry x="326" y="780" width="40" height="40" as="geometry" />
        </mxCell>
        <mxCell id="VqWyA_MeXVN1tjf2iSKF-34" value="" style="whiteSpace=wrap;html=1;aspect=fixed;rotation=-15;fontSize=13;fontFamily=Verdana;fontStyle=1;fontColor=#333333;fillColor=none;strokeColor=#1BA1E2;shadow=0;sketch=0;rounded=1;glass=0;dashed=1;" vertex="1" parent="1">
          <mxGeometry x="374" y="762" width="40" height="40" as="geometry" />
        </mxCell>
      </root>
    </mxGraphModel>
  </diagram>
</mxfile>
